<svg id="Layer_1" data-name="Layer 1" xmlns="http://www.w3.org/2000/svg" viewBox="0 0 1679.81 1032.49"><defs><style>.cls-1{fill:#b8c1c9;}.cls-2{fill:#016eb9;}.cls-3{fill:#131f2d;}.cls-4{fill:#657285;}.cls-5{fill:#d36e2a;}.cls-6{fill:#eaeaea;}.cls-7{fill:#00a3fe;}.cls-8{fill:#fff;}.cls-9{fill:#a0462d;}.cls-10{fill:#364154;}.cls-11{fill:#ff7955;}.cls-12{fill:#ef6343;}.cls-13{fill:#b05638;}</style></defs><path class="cls-1" d="M2331.22,563.9a263.91,263.91,0,0,0-166.83,59.16c-59.79,48.72-97.84,122.73-97.84,205.52,0,146.14,264.67,471,264.67,471s120.21-147.59,198.41-288.5c38-68.15,66.27-134.85,66.27-182.51C2595.9,682.44,2477.36,563.9,2331.22,563.9Zm0,385.51a124.56,124.56,0,1,1,27-3.13A114.75,114.75,0,0,1,2331.22,949.41Z" transform="translate(-1518.96 -440.84)"/><polygon class="cls-2" points="733.17 716.63 449.1 716.63 449.1 957.16 767.38 957.16 733.17 716.63"/><polygon class="cls-3" points="720.73 724.86 398.79 724.86 398.79 957.16 754.12 957.16 720.73 724.86"/><rect class="cls-1" x="2100.84" y="1353.62" width="43.78" height="44.39" transform="translate(2726.49 2310.77) rotate(180)"/><rect class="cls-4" x="2142.79" y="1353.62" width="26.5" height="44.39" transform="translate(2793.12 2310.77) rotate(180)"/><rect class="cls-1" x="2098.51" y="1297.85" width="72.6" height="56.38" transform="translate(2750.66 2211.22) rotate(180)"/><rect class="cls-4" x="2169.29" y="1310.44" width="20.04" height="43.78" transform="translate(2839.66 2223.82) rotate(180)"/><rect class="cls-1" x="176.4" y="928.82" width="101.75" height="45.13" rx="4.13"/><path class="cls-3" d="M2055,1429.7a40.79,40.79,0,1,1,40.79,40.79A40.79,40.79,0,0,1,2055,1429.7Z" transform="translate(-1518.96 -440.84)"/><path class="cls-3" d="M2192.17,1429.7a40.79,40.79,0,1,1,40.78,40.79A40.78,40.78,0,0,1,2192.17,1429.7Z" transform="translate(-1518.96 -440.84)"/><path class="cls-3" d="M1709.26,1429.7a40.79,40.79,0,1,1,40.78,40.79A40.78,40.78,0,0,1,1709.26,1429.7Z" transform="translate(-1518.96 -440.84)"/><path class="cls-5" d="M1729.46,1429.7a20.59,20.59,0,1,1,20.58,20.58A20.59,20.59,0,0,1,1729.46,1429.7Z" transform="translate(-1518.96 -440.84)"/><path class="cls-4" d="M1729.46,1429.7a20.59,20.59,0,1,1,20.58,20.58A20.59,20.59,0,0,1,1729.46,1429.7Z" transform="translate(-1518.96 -440.84)"/><path class="cls-1" d="M1743.66,1429.7a6.39,6.39,0,1,1,6.38,6.38A6.38,6.38,0,0,1,1743.66,1429.7Z" transform="translate(-1518.96 -440.84)"/><path class="cls-1" d="M1736.72,1440.64a2.47,2.47,0,1,1,2.47,2.47A2.46,2.46,0,0,1,1736.72,1440.64Z" transform="translate(-1518.96 -440.84)"/><path class="cls-1" d="M1733.83,1422.29a2.47,2.47,0,1,1,2.47,2.47A2.47,2.47,0,0,1,1733.83,1422.29Z" transform="translate(-1518.96 -440.84)"/><path class="cls-1" d="M1761,1422.29a2.47,2.47,0,1,1,2.47,2.47A2.46,2.46,0,0,1,1761,1422.29Z" transform="translate(-1518.96 -440.84)"/><path class="cls-1" d="M1759,1440.64a2.47,2.47,0,1,1,2.47,2.47A2.46,2.46,0,0,1,1759,1440.64Z" transform="translate(-1518.96 -440.84)"/><path class="cls-1" d="M1747.57,1414a2.48,2.48,0,1,1,2.47,2.47A2.48,2.48,0,0,1,1747.57,1414Z" transform="translate(-1518.96 -440.84)"/><path class="cls-5" d="M2074.45,1429.7a20.59,20.59,0,1,1,20.59,20.58A20.59,20.59,0,0,1,2074.45,1429.7Z" transform="translate(-1518.96 -440.84)"/><path class="cls-4" d="M2074.45,1429.7a20.59,20.59,0,1,1,20.59,20.58A20.59,20.59,0,0,1,2074.45,1429.7Z" transform="translate(-1518.96 -440.84)"/><path class="cls-1" d="M2088.66,1429.7a6.38,6.38,0,1,1,6.38,6.38A6.37,6.37,0,0,1,2088.66,1429.7Z" transform="translate(-1518.96 -440.84)"/><path class="cls-1" d="M2081.71,1440.64a2.47,2.47,0,1,1,2.47,2.47A2.46,2.46,0,0,1,2081.71,1440.64Z" transform="translate(-1518.96 -440.84)"/><path class="cls-1" d="M2080.78,1422.29a2.47,2.47,0,1,1,2.47,2.47A2.47,2.47,0,0,1,2080.78,1422.29Z" transform="translate(-1518.96 -440.84)"/><path class="cls-1" d="M2103.94,1440.64a2.47,2.47,0,1,1,2.47,2.47A2.47,2.47,0,0,1,2103.94,1440.64Z" transform="translate(-1518.96 -440.84)"/><path class="cls-1" d="M2073.66,1414a2.47,2.47,0,1,1,2.47,2.47A2.47,2.47,0,0,1,2073.66,1414Z" transform="translate(-1518.96 -440.84)"/><path class="cls-3" d="M1825.14,1429.7a40.79,40.79,0,1,1,40.79,40.79A40.79,40.79,0,0,1,1825.14,1429.7Z" transform="translate(-1518.96 -440.84)"/><path class="cls-4" d="M1749.59,1209.47s22.13-33.39,47.72-33.66l-2.28,36.12Z" transform="translate(-1518.96 -440.84)"/><path class="cls-1" d="M1880,1362H1702.84l14.74-119.65a38.81,38.81,0,0,1,38.51-34.06H1880Z" transform="translate(-1518.96 -440.84)"/><path class="cls-4" d="M1777,1288.84h-49.67l6.58-47.25a19.69,19.69,0,0,1,19.5-17h25.13Z" transform="translate(-1518.96 -440.84)"/><path class="cls-6" d="M1773.33,1285.28h-32.7a8.16,8.16,0,0,1-8.1-9.24l4.34-32.68c1.15-8.64,8.19-15.06,16.5-15.06h21.26Z" transform="translate(-1518.96 -440.84)"/><polygon class="cls-2" points="601.94 957.16 261.23 957.16 276.43 716.63 581.8 716.63 601.94 957.16"/><polygon class="cls-7" points="588.6 948.04 273.74 948.04 287.79 725.75 569.99 725.75 585.08 905.93 588.6 948.04"/><path class="cls-4" d="M1810.92,1362H1702.84c-9.52.63-10.44,5.33-10.44,5.33l-9.24,44.71a3,3,0,0,0,3.12,2.77h27.17c1.72,0,3-1.25,3.69-2.85,0,0,4.18-5.16,7-7a44,44,0,0,1,25.92-7.67c13.86,0,26.1,4.41,33.47,11.14h27.41c3.31,0,6-1.72,6-3.84v-38.75C1816.93,1363.7,1814.23,1362,1810.92,1362Z" transform="translate(-1518.96 -440.84)"/><path class="cls-2" d="M2150.75,1449.73H2116.5a31.74,31.74,0,0,0-4.3-11c-10.35-16.6-34.57-21.67-48.36-23.22-6.05-.68-10.09-.69-10.09-.69h58.88a43.23,43.23,0,0,1,30.49,18.53A50.26,50.26,0,0,1,2150.75,1449.73Z" transform="translate(-1518.96 -440.84)"/><path class="cls-2" d="M2286.34,1449.73h-34.26a31.67,31.67,0,0,0-5.15-12.34c-15.64-22.57-57.6-22.6-57.6-22.6h58.89a43,43,0,0,1,27.41,14.58A51,51,0,0,1,2286.34,1449.73Z" transform="translate(-1518.96 -440.84)"/><rect class="cls-2" x="264.37" y="957.16" width="511.47" height="23.33" rx="4.59"/><rect class="cls-2" x="286.01" y="963.02" width="101.75" height="51.67" rx="4.42"/><path class="cls-7" d="M1706.06,1265.68s-4.43,23.8-4.21,27.68,3.88,5.77,6.67,5.77Z" transform="translate(-1518.96 -440.84)"/><rect class="cls-4" x="186.92" y="822.85" width="16.48" height="35.43" rx="2.86"/><rect class="cls-6" x="188.75" y="824.84" width="13.41" height="31.73" rx="2.44"/><path class="cls-7" d="M1714.12,1264.34a.6.6,0,0,1-.55-.64v-10a.25.25,0,0,1,0-.08s.68-5.75,6.67-5.56c5.48.17,7.84,0,7.87,0a.58.58,0,0,1,.58.6.62.62,0,0,1-.51.69c-.1,0-2.44.17-8,0a5.06,5.06,0,0,0-5.55,4.4v10A.6.6,0,0,1,1714.12,1264.34Z" transform="translate(-1518.96 -440.84)"/><path class="cls-4" d="M1772.4,1304.23h-10a2.55,2.55,0,0,1-2.55-2.55h0a2.55,2.55,0,0,1,2.55-2.55h10a2.56,2.56,0,0,1,2.55,2.55h0A2.55,2.55,0,0,1,1772.4,1304.23Z" transform="translate(-1518.96 -440.84)"/><rect class="cls-1" x="2173.5" y="1354.22" width="43.78" height="43.78" transform="translate(2871.83 2311.38) rotate(180)"/><rect class="cls-4" x="2215.46" y="1354.22" width="20.04" height="43.78" transform="translate(2932.01 2311.38) rotate(180)"/><path class="cls-8" d="M1869.25,1264.05a15,15,0,0,1,5,.76,9.53,9.53,0,0,1,3.55,2.17,9.27,9.27,0,0,1,2.19,3.41,14.89,14.89,0,0,1,.92,4.45,50.84,50.84,0,0,1,0,5.79,14.89,14.89,0,0,1-.92,4.46,9.23,9.23,0,0,1-5.67,5.58,14.51,14.51,0,0,1-4.91.76h-9.85a1.08,1.08,0,0,1-1.06-1.06v-25.26a1,1,0,0,1,.32-.75,1,1,0,0,1,.74-.31Zm6.41,10.79a7.61,7.61,0,0,0-.49-2.32,5.11,5.11,0,0,0-1.21-1.88,5.5,5.5,0,0,0-2-1.25,8.37,8.37,0,0,0-2.9-.45h-5.24v17.6h5.44a7.79,7.79,0,0,0,2.78-.45,5.51,5.51,0,0,0,2-1.23,5.16,5.16,0,0,0,1.19-1.88,7.8,7.8,0,0,0,.49-2.35A50.84,50.84,0,0,0,1875.66,1274.84Z" transform="translate(-1518.96 -440.84)"/><path class="cls-8" d="M1904.29,1286.54a1.06,1.06,0,0,1,1.06,1.06v2.77a1,1,0,0,1-.31.75,1.06,1.06,0,0,1-.75.31h-17.17a1.05,1.05,0,0,1-.74-.31,1,1,0,0,1-.31-.75v-25.26a1.06,1.06,0,0,1,1-1.06H1904a1,1,0,0,1,.74.31,1,1,0,0,1,.32.75v2.77a1.08,1.08,0,0,1-1.06,1.06h-12.63v6.22h11.77a1,1,0,0,1,.74.31,1,1,0,0,1,.32.74V1279a1.09,1.09,0,0,1-1.06,1.06h-11.77v6.49Z" transform="translate(-1518.96 -440.84)"/><path class="cls-8" d="M1928.39,1286.54a1.06,1.06,0,0,1,1,1.06v2.77a1,1,0,0,1-.31.75,1.05,1.05,0,0,1-.74.31h-17.13a1.06,1.06,0,0,1-.75-.31,1,1,0,0,1-.31-.75v-25.26a1.06,1.06,0,0,1,1.06-1.06h3.16a1.06,1.06,0,0,1,1.06,1.06v21.43Z" transform="translate(-1518.96 -440.84)"/><path class="cls-8" d="M1934.25,1291.43a1.05,1.05,0,0,1-.74-.31,1,1,0,0,1-.31-.75v-25.26a1.06,1.06,0,0,1,1-1.06h3.17a1,1,0,0,1,.75.31,1.06,1.06,0,0,1,.31.75v25.26a1.06,1.06,0,0,1-1.06,1.06Z" transform="translate(-1518.96 -440.84)"/><path class="cls-8" d="M1954.51,1283.68l6.58-18.65a1.89,1.89,0,0,1,.41-.65,1.11,1.11,0,0,1,.88-.33h3a1,1,0,0,1,.74.31,1,1,0,0,1,.31.75v.13a.9.9,0,0,1-.07.26l-8.76,24.6a2.89,2.89,0,0,1-.55,1,1.24,1.24,0,0,1-.94.33H1953a1.24,1.24,0,0,1-.94-.33,2.89,2.89,0,0,1-.55-1l-8.76-24.6a1.07,1.07,0,0,1-.08-.26v-.13a1,1,0,0,1,.32-.75,1,1,0,0,1,.74-.31h3a1.11,1.11,0,0,1,.88.33,1.89,1.89,0,0,1,.41.65Z" transform="translate(-1518.96 -440.84)"/><path class="cls-8" d="M1988.78,1286.54a1.06,1.06,0,0,1,1,1.06v2.77a1,1,0,0,1-.31.75,1.05,1.05,0,0,1-.74.31h-17.17a1.06,1.06,0,0,1-.75-.31,1,1,0,0,1-.31-.75v-25.26a1.06,1.06,0,0,1,1.06-1.06h16.85a1.06,1.06,0,0,1,1.06,1.06v2.77a1,1,0,0,1-.31.75,1.06,1.06,0,0,1-.75.31h-12.63v6.22h11.77a1.06,1.06,0,0,1,1.06,1V1279a1,1,0,0,1-.31.74,1,1,0,0,1-.75.32h-11.77v6.49Z" transform="translate(-1518.96 -440.84)"/><path class="cls-8" d="M2005.83,1264.05q4.89,0,7.43,2.27a8,8,0,0,1,2.54,6.3,8.65,8.65,0,0,1-1.31,4.86,7.67,7.67,0,0,1-3.85,3l5.4,9.66a.94.94,0,0,1,.12.43.89.89,0,0,1-.86.86H2012a1.54,1.54,0,0,1-1.15-.37,2.66,2.66,0,0,1-.53-.69l-5.12-9.11H2000v9.11a1,1,0,0,1-.31.75,1.05,1.05,0,0,1-.74.31h-3.17a1.08,1.08,0,0,1-1.06-1.06v-25.26a1,1,0,0,1,.32-.75,1,1,0,0,1,.74-.31Zm-5.87,12.32h5.67a7,7,0,0,0,3.56-.78,3.14,3.14,0,0,0,1.33-3,3.06,3.06,0,0,0-1.33-2.94,7.34,7.34,0,0,0-3.56-.74H2000Z" transform="translate(-1518.96 -440.84)"/><path class="cls-8" d="M2040.68,1264.05a1,1,0,0,1,.74.31,1,1,0,0,1,.32.75.82.82,0,0,1-.08.35l-9.27,16.31v8.6a1.06,1.06,0,0,1-1.06,1.06h-3.13a1.05,1.05,0,0,1-.74-.31,1,1,0,0,1-.31-.75v-8.6l-9.27-16.31a.82.82,0,0,1-.08-.35,1.06,1.06,0,0,1,1.06-1.06h2.93a1.59,1.59,0,0,1,1.17.39,2.17,2.17,0,0,1,.47.59l6.34,11.07,6.33-11.07a2.4,2.4,0,0,1,.47-.59,1.61,1.61,0,0,1,1.18-.39Z" transform="translate(-1518.96 -440.84)"/><path class="cls-4" d="M3113.41,927.36a64.78,64.78,0,0,0-64.78,64.78c0,35.78,64.78,115.33,64.78,115.33s64.79-79.55,64.79-115.33A64.78,64.78,0,0,0,3113.41,927.36Zm0,94.41a30.29,30.29,0,1,1,30.28-30.29A30.29,30.29,0,0,1,3113.41,1021.77Z" transform="translate(-1518.96 -440.84)"/><path class="cls-7" d="M1618.6,1078.84a54.63,54.63,0,0,0-54.63,54.63c0,30.18,54.63,97.26,54.63,97.26s54.64-67.08,54.64-97.26A54.63,54.63,0,0,0,1618.6,1078.84Zm0,79.62a25.54,25.54,0,1,1,25.54-25.54A25.54,25.54,0,0,1,1618.6,1158.46Z" transform="translate(-1518.96 -440.84)"/><path class="cls-9" d="M2064.73,1469.23h-64.59c.67-2.31,2.85-6.29,10-7.46,10-1.62,27.24-7.4,31.09-20.15.12-.41.24-.83.33-1.26,3.06-13.62,25.31,4.18,25.31,4.18l.16,1.47C2067.53,1451,2068.84,1466.94,2064.73,1469.23Z" transform="translate(-1518.96 -440.84)"/><path class="cls-10" d="M2012.78,1104.87s3.38,42.15,7.35,92.82c5.4,68.82,11.89,153.36,12.53,169.38,1.11,27.81,5.56,72.29,5.56,72.29s10.56,10.57,31.7,6.12c0,0,18.84-63.51,24.22-130.7.08-1.1.16-2.21.25-3.32,5-68.39,12.78-212.43,12.78-212.43Z" transform="translate(-1518.96 -440.84)"/><path class="cls-3" d="M2012.78,1104.87s3.38,42.15,7.35,92.82l74,117.09c.08-1.1.16-2.21.25-3.32,5-68.39,12.78-212.43,12.78-212.43Z" transform="translate(-1518.96 -440.84)"/><path class="cls-10" d="M2028.21,1109.88s60.89,152.65,100.93,224.38,52.55,91.76,52.55,91.76,22.94-9.18,25-15.43c0,0-15.31-138.49-42.13-172.25-15.15-19.08-33-76.33-33.78-96.35s-5.42-59.64-5.42-59.64Z" transform="translate(-1518.96 -440.84)"/><path class="cls-11" d="M2108.33,874.64s-41.2,20.19-64.95,12.7a56.26,56.26,0,0,1,16.07-13.07c-.82-4.84-1.46-9-1.82-12.6a117.84,117.84,0,0,1-1-12.89l15.9-12.69,15.07-12.15C2086.4,858.1,2108.33,874.64,2108.33,874.64Z" transform="translate(-1518.96 -440.84)"/><path class="cls-7" d="M2130,1090.17c.09,2.56-5.3,5.48-7.67,6.58-17.64,7.85-34.08,13.34-52.72,15.16-22,2.29-48.05-2.74-57-2.55a3.72,3.72,0,0,1-2.47-1c-.64-.46-1.09-27.41-.64-61.3,0-1.37,0-2.74.1-4.11v-.45c.18-13.25.63-27.14,1.27-41,1.28-30.52,3.66-59.93,7.68-76.19,4.84-19.19,15.8-31.88,25.76-41.11l8.22-7.31a38.94,38.94,0,0,0,25.58-3.1c9.5-4.66,19.9-9.89,21.54-8.61,12.42,9.23,20.67,30.16,25.14,56.66a298.05,298.05,0,0,1,3.75,50.24c0,6.58-.19,13.34-.55,20-2.19,36.17,0,67.6,1.28,85.78C2129.67,1083.14,2130,1087.25,2130,1090.17Z" transform="translate(-1518.96 -440.84)"/><path class="cls-2" d="M2129.31,1077.84c-199.61-.28-36.82-148.82-36.82-148.82l32.34-7.21a298.05,298.05,0,0,1,3.75,50.24c0,6.58-.19,13.34-.55,20C2125.84,1028.23,2128,1059.66,2129.31,1077.84Z" transform="translate(-1518.96 -440.84)"/><rect class="cls-1" x="1883.75" y="952.76" width="124.11" height="124.11" transform="translate(2372.65 1588.78) rotate(180)"/><rect class="cls-4" x="2002.7" y="952.76" width="56.82" height="124.11" transform="translate(2543.25 1588.78) rotate(180)"/><path class="cls-11" d="M1989.22,1016.64l-7.39-2.37s-5.17-17.1-22.65-9.45c0,0-7.1,3.77-4,8.22s2.55,2.11,6.82,8.52,11,9.46,16.42,7l6.14.18Z" transform="translate(-1518.96 -440.84)"/><path class="cls-7" d="M2108.34,874.59s45.2,71.89-3,155c-15,25.93-128.56,1.28-128.56,1.28s-4.43-8,7.42-16.41c0,0,75.59-12.8,84.6-14.94,8-1.91,2.66-75.37,11.8-96.68A53.7,53.7,0,0,1,2108.34,874.59Z" transform="translate(-1518.96 -440.84)"/><path class="cls-12" d="M2087.86,837s-10.41,19.28-30.23,24.67a117.84,117.84,0,0,1-1-12.89l15.9-12.69Z" transform="translate(-1518.96 -440.84)"/><path class="cls-11" d="M2049.37,848.23s39.31,6.53,43-18,11.24-40.22-13.69-45.43-31.24,3.42-34.46,11.31S2039.24,845.9,2049.37,848.23Z" transform="translate(-1518.96 -440.84)"/><path class="cls-3" d="M2092.11,831.91s-.8-32.87-36.61-38.14c-24.53-3.62-22.49-21.39-19.68-24.63,0,0,31.7.26,50.76,5.06C2115.39,781.46,2096.36,827,2092.11,831.91Z" transform="translate(-1518.96 -440.84)"/><path class="cls-9" d="M2206.71,1415.73l-1.9-2.45-21.65,12.13c-.2,4.14-.31,8.92-.08,13.12a35.43,35.43,0,0,1-.52,8.5c-.45,2.15-2.74,11.31-9.44,13.72-7.61,2.73-8.22,8.58,4.77,8.48l6.78,0a18.06,18.06,0,0,0,17.23-13.33,30.84,30.84,0,0,1,5.26-10.19c3.42-4,7.43-7.51,8.73-11.88C2218.12,1426.3,2206.71,1415.73,2206.71,1415.73Z" transform="translate(-1518.96 -440.84)"/><polygon class="cls-2" points="932.15 818.95 936.42 815.47 879.21 740.7 858.56 739.84 932.15 818.95"/><polygon class="cls-2" points="1006.9 818.95 1010.44 815.47 963.1 740.7 946.02 739.84 1006.9 818.95"/><path class="cls-7" d="M2875.23,1064.92c0-14.19-11.24-25.69-25.09-25.69s-25.09,11.5-25.09,25.69,11.23,25.7,25.09,25.7S2875.23,1079.11,2875.23,1064.92Z" transform="translate(-1518.96 -440.84)"/><path class="cls-7" d="M2556.94,1411.3h255.12a5.08,5.08,0,0,0,5-5.08v-24.11a5.08,5.08,0,0,0-5-5.08H2586.7a5.08,5.08,0,0,0-5,5.08Z" transform="translate(-1518.96 -440.84)"/><path class="cls-3" d="M2554.7,1392.41a76.25,76.25,0,1,0-76.25,76.24A76.24,76.24,0,0,0,2554.7,1392.41Z" transform="translate(-1518.96 -440.84)"/><path class="cls-4" d="M2517.32,1392.41a38.87,38.87,0,1,0-38.87,38.87A38.86,38.86,0,0,0,2517.32,1392.41Z" transform="translate(-1518.96 -440.84)"/><path class="cls-7" d="M2870.35,1284.79a112.9,112.9,0,0,1,145.72,90.75,14.72,14.72,0,0,1-14.57,16.87h-.5a9.36,9.36,0,0,1-9.3-8.52,87.67,87.67,0,0,0-174.92,8.52h-25.22A113.07,113.07,0,0,1,2870.35,1284.79Z" transform="translate(-1518.96 -440.84)"/><path class="cls-7" d="M2753.35,1377l38.21,15.38c26.45-51.44,53.47-76.68,76.57-89.13,41.57-22.41,70.5-3.43,60.76-21.08l-71.31-150.46a65.48,65.48,0,0,0-59.23-27,21.3,21.3,0,0,0-18.16,27.94c9.33,27.92,12.92,56,12.92,82.63C2793.11,1304,2753.35,1377,2753.35,1377Z" transform="translate(-1518.96 -440.84)"/><path class="cls-7" d="M2792.3,1122.16l28.78-11c3.91,0,11.38,3.54,11.38-.38l-4.26-70.27a7.14,7.14,0,0,0-7.12-7.12h-18.55c-3.92,0-19.61,7.51-18.51,21.57l-4.93,70.84C2779.09,1129.72,2788.39,1122.16,2792.3,1122.16Z" transform="translate(-1518.96 -440.84)"/><rect class="cls-2" x="2292.1" y="1157.07" width="211.81" height="27.09" rx="10.09" transform="translate(3277.05 1900.39) rotate(180)"/><circle class="cls-3" cx="1385.48" cy="951.57" r="76.24"/><path class="cls-4" d="M2865.58,1392.41a38.61,38.61,0,0,0,4.48,18.12c.18.36.38.7.58,1a38.86,38.86,0,1,0,48.74-55l-.45-.19a38.87,38.87,0,0,0-53.35,36.06Z" transform="translate(-1518.96 -440.84)"/><path class="cls-7" d="M2625.19,1238.84s-19.69,78.07,46.71,150L2508.61,1377l20.79-157.56Z" transform="translate(-1518.96 -440.84)"/><path class="cls-7" d="M2324.76,1401.21a10.12,10.12,0,0,0,10.09,10.09h244.58a10.12,10.12,0,0,0,10.09-10.09l-3.25-160-82.36-5C2394.2,1236.2,2324.76,1291.5,2324.76,1401.21Z" transform="translate(-1518.96 -440.84)"/><path class="cls-2" d="M2825.05,1063.46a39.37,39.37,0,0,0,39.45,39.45V1024A39.45,39.45,0,0,0,2825.05,1063.46Z" transform="translate(-1518.96 -440.84)"/><path class="cls-3" d="M2762.77,1068.79c.16,0,1.79-.32,1.95-.35l43.4-12c1.73-.33,2.92-2.47,2.66-4.76s-1.85-3.89-3.57-3.55l-43.51,8.49c-1.72.34-3.09,3-3.5,5.21C2759.52,1065.57,2761.24,1068.79,2762.77,1068.79Z" transform="translate(-1518.96 -440.84)"/><path class="cls-7" d="M2867.66,1306.32q-.6,3.65-1.14,7l.34-.16a87.66,87.66,0,0,1,124.84,70.68,9.36,9.36,0,0,0,9.3,8.52h.5a14.72,14.72,0,0,0,14.57-16.87,113.2,113.2,0,0,0-86.73-93.24l-.45-.1-71.31-150.46a65.31,65.31,0,0,0-25.12-21c12.15,20.46,45.68,85.86,37.89,174q-.81,9.07-2.22,18.49C2868,1304.29,2867.82,1305.3,2867.66,1306.32Z" transform="translate(-1518.96 -440.84)"/><rect class="cls-9" x="942.44" y="759.24" width="171.29" height="38.76" rx="7.5"/><path class="cls-2" d="M2344.14,1411.3h235.29s14.36-87.12-38.6-116.54c-12.75-7.08-28.77-9.52-46.23-7.82C2439.58,1292.33,2370.31,1339,2344.14,1411.3Z" transform="translate(-1518.96 -440.84)"/><path class="cls-2" d="M2825.71,1070.72a39.46,39.46,0,0,0,38.79,32.19v-22C2852.91,1081.36,2836.21,1080.1,2825.71,1070.72Z" transform="translate(-1518.96 -440.84)"/><path class="cls-2" d="M2867.66,1306.32q-.6,3.65-1.14,7l.34-.16c14.08-13,43.82-24.55,62.48-30.91l-.45-.1-71.31-150.46a65.31,65.31,0,0,0-25.12-21c12.15,20.46,45.68,85.86,37.89,174q-.81,9.07-2.22,18.49C2868,1304.29,2867.82,1305.3,2867.66,1306.32Z" transform="translate(-1518.96 -440.84)"/><rect class="cls-9" x="847.41" y="615.78" width="121.81" height="100.44"/><rect class="cls-13" x="786.5" y="615.79" width="121.81" height="100.44"/><polygon class="cls-10" points="969.14 690.75 949.84 690.75 951.54 685.32 949.84 681.44 969.14 681.44 969.14 690.75"/><polygon class="cls-3" points="786.5 638.31 805.8 638.31 804.1 632.88 805.8 629 786.5 629 786.5 638.31"/><polygon class="cls-3" points="786.5 700.06 805.8 700.06 804.1 694.63 805.8 690.75 786.5 690.75 786.5 700.06"/><path class="cls-11" d="M2611.6,965.61c-21.06,8.55-59.55-9.73-59.55-9.73s12.78-11.32,15.21-32.74c.13-1.08.22-2.18.29-3.31l10.88-3.87,18.65,12.7a144.49,144.49,0,0,1-.21,17.18q-.16,2.86-.46,6.14C2606.1,956.33,2611.6,965.61,2611.6,965.61Z" transform="translate(-1518.96 -440.84)"/><path class="cls-12" d="M2597.08,928.66a144.49,144.49,0,0,1-.21,17.18c-17-3.09-26.31-16.8-29.61-22.7.13-1.08.22-2.18.29-3.31l10.88-3.87Z" transform="translate(-1518.96 -440.84)"/><path class="cls-11" d="M2600.53,937.76s-36.27-1.18-35.19-23.76-2.87-37.93,20.34-38.13,27.28,8.63,28.75,16.26S2610,937.49,2600.53,937.76Z" transform="translate(-1518.96 -440.84)"/><path class="cls-3" d="M2567.26,923.14s-1.41-7.51,2.67-12.46c0,0-2.64-7.36.2-9s4.3,4.63,5.55,3.45,6.72-6.75,8.41-14.1,26.84-2.08,29.81-1.19S2597.21,854,2576,862.73s-22.82,19.58-20.37,28.41S2557.85,921.32,2567.26,923.14Z" transform="translate(-1518.96 -440.84)"/><path class="cls-3" d="M2532.57,1138.61s2.51,44.3,12.6,56.92,203.42,7.72,203.42,7.72.84-28.4-6.73-35.71-42.87-28.28-155.58-40.18Z" transform="translate(-1518.96 -440.84)"/><path class="cls-7" d="M2530,1045.88c3.15,38-1,95.93,2.58,106,3.09,8.65,38.25,3.5,52.28.62,5.19-1.08,11.49-2.6,18-4.4,18.13-5,37.88-12.23,40-17.58a3.87,3.87,0,0,0,.19-.61,4.35,4.35,0,0,0,0-2.24c-.52-2-2.15-4.15-3.1-7.86a23.33,23.33,0,0,1-.65-4.55c-.33-6.9-.31-14.91-.55-23.53,0-.79-.05-1.59-.07-2.39,0-1.08,0-2.24-.16-3.31v-.4c0-.2,0-.4,0-.6-.3-10.64-.92-21.81-1.64-32.89-.22-3.46-.47-6.9-.74-10.29-.08-1.2-.18-2.4-.27-3.58-.19-2.22-.37-4.42-.58-6.59-1.58-17.05-3.71-32.21-6.53-41.8-4.6-15.62-14.77-25.81-24-33.27l-6.69-5.16a42.68,42.68,0,0,1-24.28-2.9c-8.63-3.69-11.62-6.33-13.12-5.33C2540.61,957,2526.27,999.35,2530,1045.88Z" transform="translate(-1518.96 -440.84)"/><path class="cls-9" d="M2679,1349s1.71,27.57,7,28c.71,0,27.06,0,27.06,0l33.64-.19s-.22-8.11-10.05-9.82-26.29-8.63-32.25-21.62C2698.21,1331.73,2679,1349,2679,1349Z" transform="translate(-1518.96 -440.84)"/><path class="cls-3" d="M2672,1350.8s6.5,5,19.75,5.64a52.59,52.59,0,0,0,9.28-.37,44,44,0,0,0,11.87-3l35.69-149.79s-38.67-33.78-58.84-12.78c-2.63,2.74-4.88,7.49-6.79,13.69C2670.16,1245.45,2672,1350.8,2672,1350.8Z" transform="translate(-1518.96 -440.84)"/><path class="cls-2" d="M2586.27,1017s25,91.65,53.62,102.82a23.33,23.33,0,0,1-.65-4.55c-.33-6.9-.31-14.91-.55-23.53,0-.79-.05-1.59-.07-2.39,0-1.08,0-2.24-.16-3.31v-.4c0-.2,0-.4,0-.6-.3-10.64-.92-21.81-1.64-32.89-.22-3.46-.47-6.9-.74-10.29C2623.47,1026.6,2606.39,1015.67,2586.27,1017Z" transform="translate(-1518.96 -440.84)"/><path class="cls-11" d="M2736.43,1052.26s10.9.84,13.7,0,16-8.69,20.73-7,16.82,14,13.73,19.61c0,0-5.6.15-10.78-5.18s-10.79-1.68-10.23-1,8.69,3.92,7.28,5.32-12,1.13-14.57-.56-21.29.42-21.29.42Z" transform="translate(-1518.96 -440.84)"/><path class="cls-7" d="M2586.28,968.62s67.78,57.78,85.63,63.36,80.88,17.82,80.88,17.82,1.74,14.93-4.17,20.53c0,0-81-4.7-91.09-6.83s-85.25-41.08-91.38-44S2561,963.86,2586.28,968.62Z" transform="translate(-1518.96 -440.84)"/><path class="cls-7" d="M2550.27,892.63V893a2.4,2.4,0,0,0,1.06,2.11,1.45,1.45,0,0,0,.66.18h85.94c1,0,1.73-1,1.73-2.29v-.35c0-1.26-.78-2.29-1.73-2.29l-19.19-2.47C2617,873.62,2607.48,862,2595,858h0a31.43,31.43,0,0,0-9.62-1.5c-17.64,0-32.08,14.57-33.59,33.14,0,.21,0,.42,0,.64l-.36.27A2.41,2.41,0,0,0,2550.27,892.63Z" transform="translate(-1518.96 -440.84)"/><path class="cls-2" d="M2579.31,889.61c-6.4-33.9,14.92-31.72,15.64-31.64a31.43,31.43,0,0,0-9.62-1.5c-17.64,0-32.08,14.57-33.59,33.14Z" transform="translate(-1518.96 -440.84)"/><path class="cls-10" d="M2382.13,521.43a2.87,2.87,0,0,1-1.48-5.33c.07,0,1.53-.92,4.35-2.48a2.86,2.86,0,1,1,2.79,5c-2.72,1.52-4.17,2.39-4.18,2.4A2.92,2.92,0,0,1,2382.13,521.43Z" transform="translate(-1518.96 -440.84)"/><path class="cls-10" d="M3119.84,880.15h0a2.87,2.87,0,0,1-2.85-2.88c0-.6,0-1.21,0-1.85,0-2.61,0-5.3-.1-8a2.87,2.87,0,0,1,5.74-.13c.06,2.73.09,5.47.09,8.12v1.88A2.87,2.87,0,0,1,3119.84,880.15Zm-.45-19.85a2.87,2.87,0,0,1-2.86-2.73c-.16-3.24-.36-6.56-.59-9.84a2.87,2.87,0,1,1,5.72-.41c.24,3.33.44,6.68.6,10a2.87,2.87,0,0,1-2.73,3ZM3118,840.5a2.87,2.87,0,0,1-2.85-2.6c-.31-3.25-.66-6.55-1-9.8a2.87,2.87,0,1,1,5.69-.68c.39,3.3.75,6.65,1.06,9.94a2.87,2.87,0,0,1-2.58,3.12Zm-2.32-19.72a2.85,2.85,0,0,1-2.83-2.46c-.46-3.25-1-6.53-1.48-9.75a2.87,2.87,0,0,1,5.66-.92c.53,3.26,1,6.58,1.49,9.87a2.87,2.87,0,0,1-2.44,3.24A2.68,2.68,0,0,1,3115.64,820.78Zm-3.18-19.58a2.86,2.86,0,0,1-2.81-2.35c-.6-3.21-1.23-6.46-1.9-9.67a2.87,2.87,0,0,1,5.61-1.17c.68,3.26,1.32,6.55,1.92,9.8a2.86,2.86,0,0,1-2.3,3.34A3.05,3.05,0,0,1,3112.46,801.2Zm-4-19.43a2.86,2.86,0,0,1-2.79-2.22c-.74-3.19-1.52-6.42-2.32-9.58a2.87,2.87,0,1,1,5.56-1.41c.81,3.21,1.6,6.47,2.34,9.7a2.87,2.87,0,0,1-2.15,3.44A2.79,2.79,0,0,1,3108.44,781.77Zm-4.87-19.23a2.87,2.87,0,0,1-2.76-2.1c-.87-3.16-1.79-6.35-2.73-9.47a2.87,2.87,0,1,1,5.49-1.65c.95,3.16,1.88,6.39,2.77,9.59a2.86,2.86,0,0,1-2.77,3.63Zm-5.7-19a2.87,2.87,0,0,1-2.73-2c-1-3.1-2.07-6.24-3.15-9.33a2.87,2.87,0,1,1,5.41-1.89c1.09,3.12,2.17,6.3,3.19,9.45a2.85,2.85,0,0,1-1.84,3.61A2.71,2.71,0,0,1,3097.87,743.55Zm-6.56-18.72a2.86,2.86,0,0,1-2.68-1.86c-1.15-3.06-2.35-6.15-3.57-9.18a2.87,2.87,0,1,1,5.32-2.14c1.23,3.07,2.45,6.2,3.61,9.3a2.86,2.86,0,0,1-1.67,3.69A2.74,2.74,0,0,1,3091.31,724.83Zm-7.4-18.4a2.86,2.86,0,0,1-2.63-1.73c-1.3-3-2.65-6.05-4-9a2.87,2.87,0,1,1,5.22-2.38c1.37,3,2.73,6.06,4,9.12a2.86,2.86,0,0,1-1.5,3.77A2.82,2.82,0,0,1,3083.91,706.43Zm-8.25-18a2.87,2.87,0,0,1-2.58-1.61c-1.43-2.93-2.91-5.89-4.41-8.8a2.86,2.86,0,1,1,5.09-2.63c1.52,2.94,3,5.95,4.47,8.92a2.86,2.86,0,0,1-1.32,3.83A2.79,2.79,0,0,1,3075.66,688.4Zm-9.1-17.61a2.88,2.88,0,0,1-2.52-1.49c-1.57-2.88-3.2-5.77-4.83-8.58a2.87,2.87,0,1,1,5-2.87c1.65,2.85,3.3,5.78,4.89,8.69a2.87,2.87,0,0,1-2.51,4.25Zm-9.93-17.16a2.87,2.87,0,0,1-2.45-1.37c-1.7-2.78-3.47-5.58-5.24-8.33a2.86,2.86,0,0,1,4.81-3.11c1.8,2.79,3.59,5.63,5.32,8.45a2.87,2.87,0,0,1-1,3.94A2.9,2.9,0,0,1,3056.63,653.63ZM3045.86,637a2.88,2.88,0,0,1-2.37-1.25c-1.84-2.71-3.74-5.42-5.64-8.06a2.87,2.87,0,0,1,4.65-3.35c1.93,2.68,3.86,5.44,5.73,8.18a2.87,2.87,0,0,1-2.37,4.48Zm-11.56-16.09a2.87,2.87,0,0,1-2.29-1.14c-2-2.6-4-5.21-6-7.77a2.87,2.87,0,0,1,4.49-3.58c2.07,2.6,4.13,5.25,6.12,7.89a2.85,2.85,0,0,1-.56,4A2.78,2.78,0,0,1,3034.3,620.89ZM3022,605.38a2.86,2.86,0,0,1-2.2-1c-2.09-2.49-4.25-5-6.41-7.46a2.87,2.87,0,1,1,4.3-3.79c2.2,2.49,4.39,5,6.51,7.57a2.87,2.87,0,0,1-2.2,4.71Zm-13.1-14.88a2.84,2.84,0,0,1-2.1-.92c-2.21-2.39-4.49-4.79-6.77-7.14a2.86,2.86,0,1,1,4.11-4c2.32,2.38,4.63,4.82,6.87,7.24a2.86,2.86,0,0,1-2.11,4.81Zm-13.8-14.22a2.85,2.85,0,0,1-2-.82c-2.32-2.27-4.72-4.57-7.11-6.8a2.87,2.87,0,1,1,3.91-4.19c2.43,2.27,4.86,4.59,7.21,6.9a2.86,2.86,0,0,1-2,4.91Zm-14.48-13.53a2.86,2.86,0,0,1-1.91-.73c-2.44-2.17-4.94-4.35-7.43-6.46a2.87,2.87,0,0,1,3.72-4.37c2.52,2.14,5.05,4.35,7.52,6.55a2.87,2.87,0,0,1-1.9,5Zm-15.11-12.83a2.85,2.85,0,0,1-1.8-.64c-2.53-2-5.12-4.1-7.72-6.11a2.86,2.86,0,1,1,3.5-4.53c2.64,2,5.27,4.11,7.83,6.19a2.87,2.87,0,0,1-1.81,5.09Zm-15.68-12.11a2.91,2.91,0,0,1-1.7-.56c-2.63-1.94-5.32-3.87-8-5.75a2.86,2.86,0,1,1,3.29-4.69c2.71,1.9,5.44,3.86,8.1,5.82a2.87,2.87,0,0,1-1.7,5.18Zm-16.22-11.4a2.82,2.82,0,0,1-1.59-.48c-2.71-1.82-5.48-3.63-8.24-5.4a2.87,2.87,0,0,1,3.09-4.83c2.79,1.79,5.6,3.62,8.34,5.46a2.87,2.87,0,0,1-1.6,5.25Zm-16.69-10.67a2.78,2.78,0,0,1-1.49-.42c-2.8-1.7-5.64-3.39-8.47-5a2.86,2.86,0,1,1,2.88-4.95c2.86,1.66,5.74,3.37,8.57,5.1a2.86,2.86,0,0,1-1.49,5.31Zm-521.75-1.45a2.87,2.87,0,0,1-1.33-5.41c2.86-1.49,5.86-3,8.9-4.52a2.86,2.86,0,0,1,2.55,5.13c-3,1.49-6,3-8.8,4.47A2.84,2.84,0,0,1,2395.12,514.29Zm504.61-8.51a2.91,2.91,0,0,1-1.39-.36c-2.87-1.59-5.79-3.17-8.66-4.69a2.87,2.87,0,1,1,2.67-5.07c2.91,1.54,5.86,3.13,8.77,4.75a2.86,2.86,0,0,1-1.39,5.37Zm-486.83-.31a2.87,2.87,0,0,1-1.22-5.46c3-1.4,6-2.8,9.05-4.17a2.86,2.86,0,1,1,2.36,5.22c-3,1.36-6,2.75-9,4.14A2.78,2.78,0,0,1,2412.9,505.47Zm18.09-8.15a2.87,2.87,0,0,1-1.14-5.5c3-1.31,6.12-2.61,9.18-3.88a2.87,2.87,0,1,1,2.19,5.31c-3,1.25-6.09,2.54-9.1,3.83A2.83,2.83,0,0,1,2431,497.32Zm451.21-.79a3,3,0,0,1-1.29-.3c-2.93-1.48-5.91-2.93-8.85-4.33a2.87,2.87,0,0,1,2.46-5.18c3,1.42,6,2.89,9,4.38a2.87,2.87,0,0,1-1.28,5.43Zm-432.87-6.78a2.86,2.86,0,0,1-1-5.53c3.09-1.22,6.22-2.43,9.29-3.58a2.87,2.87,0,1,1,2,5.37c-3.05,1.14-6.15,2.33-9.21,3.54A2.79,2.79,0,0,1,2449.33,489.75Zm415-1.73a2.72,2.72,0,0,1-1.17-.26c-3-1.34-6-2.67-9-3.94a2.87,2.87,0,0,1,2.24-5.28c3.05,1.29,6.12,2.64,9.14,4a2.87,2.87,0,0,1-1.18,5.48Zm-396.4-5.25a2.87,2.87,0,0,1-1-5.57c3.13-1.12,6.29-2.23,9.4-3.29a2.87,2.87,0,1,1,1.85,5.43c-3.08,1.05-6.21,2.15-9.32,3.26A3,3,0,0,1,2467.89,482.77Zm378.16-2.5a2.78,2.78,0,0,1-1.06-.21c-3-1.21-6.13-2.41-9.19-3.56a2.87,2.87,0,0,1,2-5.37c3.1,1.16,6.23,2.38,9.3,3.61a2.87,2.87,0,0,1-1.06,5.53Zm-359.39-3.91a2.87,2.87,0,0,1-.88-5.6c3.15-1,6.35-2,9.5-3a2.87,2.87,0,1,1,1.68,5.48c-3.12,1-6.29,2-9.41,3A2.77,2.77,0,0,1,2486.66,476.36Zm340.83-3.06a2.93,2.93,0,0,1-.95-.17c-3.11-1.09-6.25-2.15-9.33-3.16a2.87,2.87,0,1,1,1.79-5.45c3.12,1,6.29,2.1,9.44,3.2a2.87,2.87,0,0,1-1,5.58Zm-321.87-2.78a2.87,2.87,0,0,1-.8-5.62c3.19-.92,6.41-1.84,9.59-2.71a2.87,2.87,0,0,1,1.51,5.53c-3.14.87-6.34,1.77-9.5,2.69A2.8,2.8,0,0,1,2505.62,470.52Zm303-3.39a2.71,2.71,0,0,1-.83-.13c-3.12-.95-6.3-1.88-9.46-2.76a2.87,2.87,0,0,1,1.55-5.52c3.2.89,6.42,1.84,9.58,2.8a2.87,2.87,0,0,1-.84,5.61Zm-283.9-1.85a2.87,2.87,0,0,1-.72-5.64c3.2-.83,6.45-1.63,9.67-2.41a2.86,2.86,0,1,1,1.34,5.57c-3.19.77-6.41,1.57-9.58,2.39A2.94,2.94,0,0,1,2524.75,465.28Zm264.82-3.52a3,3,0,0,1-.72-.09c-3.18-.82-6.4-1.61-9.57-2.36a2.87,2.87,0,1,1,1.32-5.58c3.21.76,6.46,1.56,9.68,2.39a2.87,2.87,0,0,1-.71,5.64ZM2544,460.64a2.86,2.86,0,0,1-.63-5.66c3.26-.73,6.54-1.44,9.74-2.1a2.86,2.86,0,1,1,1.16,5.61c-3.17.66-6.42,1.36-9.64,2.08A2.83,2.83,0,0,1,2544,460.64Zm226.24-3.42a2.46,2.46,0,0,1-.6-.07c-3.18-.68-6.43-1.33-9.66-1.95a2.87,2.87,0,0,1,1.08-5.63c3.27.62,6.56,1.29,9.78,2a2.87,2.87,0,0,1-.6,5.67Zm-206.82-.59a2.87,2.87,0,0,1-.53-5.69c3.26-.62,6.56-1.22,9.8-1.77a2.87,2.87,0,1,1,1,5.65c-3.2.55-6.47,1.14-9.71,1.75A2.46,2.46,0,0,1,2563.45,456.63Zm187.35-3.14a3.88,3.88,0,0,1-.48,0c-3.24-.55-6.51-1.08-9.73-1.55a2.87,2.87,0,0,1,.84-5.68c3.26.49,6.57,1,9.85,1.57a2.87,2.87,0,0,1-.48,5.7ZM2583,453.25a2.87,2.87,0,0,1-.44-5.7c3.29-.51,6.6-1,9.86-1.44a2.86,2.86,0,1,1,.78,5.67c-3.22.45-6.5.93-9.76,1.44Zm148.2-2.68-.36,0c-3.23-.42-6.53-.8-9.79-1.15a2.87,2.87,0,1,1,.61-5.7c3.3.35,6.63.74,9.9,1.16a2.87,2.87,0,0,1-.36,5.71Zm-128.56,0a2.87,2.87,0,0,1-.34-5.71c3.31-.4,6.64-.77,9.91-1.11a2.87,2.87,0,0,1,.58,5.71c-3.23.33-6.53.7-9.8,1.09Zm19.73-2a2.87,2.87,0,0,1-.24-5.73c3.33-.28,6.68-.53,9.94-.75a2.87,2.87,0,1,1,.38,5.72c-3.23.22-6.54.47-9.84.74Zm89.12-.06h-.25c-3.25-.29-6.55-.54-9.83-.76a2.87,2.87,0,0,1,.38-5.72c3.32.22,6.66.48,9.94.76a2.87,2.87,0,0,1-.24,5.73Zm-69.34-1.26a2.87,2.87,0,0,1-.13-5.73c3.32-.16,6.68-.29,10-.39a2.87,2.87,0,1,1,.17,5.73c-3.25.1-6.56.23-9.86.38Zm49.56-.06h-.14c-3.27-.15-6.58-.27-9.85-.36a2.87,2.87,0,1,1,.16-5.73c3.3.09,6.65.21,10,.37a2.87,2.87,0,0,1-.13,5.73Zm-29.74-.53a2.87,2.87,0,0,1,0-5.73q5-.06,10,0a2.87,2.87,0,0,1,0,5.73h0c-3.3,0-6.58,0-9.86,0Z" transform="translate(-1518.96 -440.84)"/><path class="cls-10" d="M3119.34,894.85h-.25a2.87,2.87,0,0,1-2.61-3.1s.14-1.7.27-4.78a2.87,2.87,0,0,1,5.73.24c-.14,3.23-.28,4.95-.29,5A2.87,2.87,0,0,1,3119.34,894.85Z" transform="translate(-1518.96 -440.84)"/><path class="cls-10" d="M2043.27,738H2043l-3.88-.44a2.28,2.28,0,1,1,.51-4.54l3.9.44a2.28,2.28,0,0,1-.26,4.55Z" transform="translate(-1518.96 -440.84)"/><path class="cls-10" d="M1616.94,1033.63a1.51,1.51,0,0,1-.3,0,2.29,2.29,0,0,1-2-2.56c.33-2.54.71-5.19,1.13-7.86a2.28,2.28,0,0,1,4.51.71c-.41,2.63-.78,5.23-1.11,7.74A2.28,2.28,0,0,1,1616.94,1033.63Zm2.42-15.56a2,2,0,0,1-.41,0,2.28,2.28,0,0,1-1.84-2.65c.46-2.57,1-5.18,1.48-7.77a2.28,2.28,0,1,1,4.48.9c-.52,2.56-1,5.14-1.47,7.68A2.28,2.28,0,0,1,1619.36,1018.07Zm3.1-15.42a2.2,2.2,0,0,1-.5-.06,2.28,2.28,0,0,1-1.73-2.72c.57-2.55,1.17-5.14,1.8-7.7a2.28,2.28,0,1,1,4.43,1.08c-.61,2.53-1.21,5.09-1.77,7.61A2.29,2.29,0,0,1,1622.46,1002.65Zm3.72-15.27a2.32,2.32,0,0,1-.58-.08,2.29,2.29,0,0,1-1.63-2.79c.67-2.54,1.38-5.1,2.1-7.62a2.28,2.28,0,1,1,4.39,1.26c-.71,2.49-1.41,5-2.07,7.53A2.29,2.29,0,0,1,1626.18,987.38Zm4.32-15.11a2.22,2.22,0,0,1-.67-.1,2.29,2.29,0,0,1-1.52-2.86c.78-2.5,1.58-5,2.4-7.52a2.28,2.28,0,1,1,4.34,1.42c-.81,2.46-1.61,5-2.37,7.45A2.28,2.28,0,0,1,1630.5,972.27Zm4.9-14.92a2.19,2.19,0,0,1-.75-.13,2.28,2.28,0,0,1-1.4-2.91c.87-2.48,1.77-5,2.69-7.43a2.28,2.28,0,0,1,4.28,1.6c-.91,2.42-1.8,4.89-2.66,7.34A2.29,2.29,0,0,1,1635.4,957.35Zm5.5-14.71a2.45,2.45,0,0,1-.84-.16,2.28,2.28,0,0,1-1.28-3c1-2.44,2-4.9,3-7.31A2.28,2.28,0,0,1,1646,934c-1,2.38-2,4.81-3,7.22A2.27,2.27,0,0,1,1640.9,942.64Zm6.09-14.48a2.2,2.2,0,0,1-.93-.2,2.27,2.27,0,0,1-1.16-3c1.07-2.4,2.18-4.82,3.29-7.18a2.28,2.28,0,1,1,4.13,1.94c-1.1,2.34-2.19,4.72-3.25,7.1A2.28,2.28,0,0,1,1647,928.16Zm6.68-14.2a2.29,2.29,0,0,1-2-3.3c1.17-2.36,2.38-4.73,3.59-7a2.29,2.29,0,1,1,4,2.13c-1.2,2.28-2.39,4.61-3.55,6.94A2.28,2.28,0,0,1,1653.67,914Zm7.3-13.9a2.22,2.22,0,0,1-1.11-.29,2.28,2.28,0,0,1-.89-3.1c1.28-2.31,2.59-4.62,3.9-6.87a2.29,2.29,0,0,1,4,2.3c-1.29,2.22-2.59,4.5-3.85,6.78A2.28,2.28,0,0,1,1661,900.06Zm7.91-13.55a2.29,2.29,0,0,1-2-3.49c1.38-2.24,2.8-4.49,4.21-6.68a2.29,2.29,0,1,1,3.84,2.48c-1.39,2.16-2.79,4.38-4.16,6.6A2.28,2.28,0,0,1,1668.88,886.51Zm8.52-13.18a2.25,2.25,0,0,1-1.28-.4,2.28,2.28,0,0,1-.61-3.17c1.49-2.19,3-4.36,4.53-6.48a2.28,2.28,0,1,1,3.71,2.66c-1.49,2.09-3,4.24-4.46,6.39A2.28,2.28,0,0,1,1677.4,873.33Zm9.14-12.75a2.26,2.26,0,0,1-1.37-.46,2.28,2.28,0,0,1-.45-3.2c1.58-2.1,3.2-4.2,4.83-6.25a2.28,2.28,0,0,1,3.58,2.84c-1.6,2-3.21,4.09-4.76,6.16A2.31,2.31,0,0,1,1686.54,860.58Zm9.75-12.29a2.29,2.29,0,0,1-1.75-3.75c1.68-2,3.41-4,5.14-6a2.28,2.28,0,1,1,3.43,3c-1.7,2-3.41,3.94-5.06,5.92A2.28,2.28,0,0,1,1696.29,848.29Zm10.36-11.79a2.31,2.31,0,0,1-1.55-.6,2.28,2.28,0,0,1-.12-3.23c1.78-1.93,3.61-3.86,5.44-5.73a2.28,2.28,0,1,1,3.27,3.19c-1.8,1.84-3.6,3.74-5.36,5.64A2.26,2.26,0,0,1,1706.65,836.5Zm10.95-11.23a2.28,2.28,0,0,1-1.6-3.92c1.89-1.84,3.82-3.67,5.74-5.44a2.28,2.28,0,0,1,3.1,3.35c-1.89,1.75-3.79,3.55-5.65,5.36A2.28,2.28,0,0,1,1717.6,825.27Zm11.51-10.65a2.28,2.28,0,0,1-1.5-4c2-1.73,4-3.45,6-5.13a2.28,2.28,0,0,1,2.92,3.51c-2,1.65-4,3.36-5.92,5A2.28,2.28,0,0,1,1729.11,814.62Zm12.06-10a2.29,2.29,0,0,1-1.41-4.08c2.06-1.62,4.17-3.24,6.27-4.8a2.28,2.28,0,0,1,2.73,3.66c-2.07,1.54-4.15,3.13-6.18,4.73A2.24,2.24,0,0,1,1741.17,804.59Zm12.57-9.37a2.28,2.28,0,0,1-1.32-4.15c2.15-1.52,4.34-3,6.52-4.48a2.28,2.28,0,0,1,2.53,3.8c-2.14,1.44-4.3,2.92-6.41,4.41A2.3,2.3,0,0,1,1753.74,795.22Zm13-8.71a2.28,2.28,0,0,1-1.22-4.21c2.2-1.39,4.47-2.78,6.74-4.13a2.29,2.29,0,0,1,2.34,3.93c-2.24,1.33-4.48,2.7-6.64,4.06A2.27,2.27,0,0,1,1766.78,786.51Zm13.48-8a2.29,2.29,0,0,1-1.12-4.28c2.28-1.28,4.62-2.54,6.94-3.77a2.28,2.28,0,1,1,2.13,4c-2.29,1.21-4.59,2.46-6.83,3.72A2.28,2.28,0,0,1,1780.26,778.5Zm13.87-7.31a2.29,2.29,0,0,1-1-4.34c2.33-1.15,4.73-2.3,7.12-3.41a2.28,2.28,0,1,1,1.93,4.14c-2.36,1.09-4.72,2.23-7,3.37A2.27,2.27,0,0,1,1794.13,771.19Zm14.21-6.62a2.29,2.29,0,0,1-.91-4.38c2.4-1,4.85-2.07,7.28-3.06a2.28,2.28,0,0,1,1.72,4.23c-2.39,1-4.81,2-7.17,3A2.3,2.3,0,0,1,1808.34,764.57Zm14.52-5.91a2.29,2.29,0,0,1-.81-4.42c2.43-.93,4.93-1.84,7.41-2.72a2.29,2.29,0,1,1,1.52,4.31c-2.45.86-4.91,1.77-7.31,2.68A2.28,2.28,0,0,1,1822.86,758.66Zm14.78-5.23a2.29,2.29,0,0,1-.71-4.46c2.5-.82,5-1.62,7.52-2.37a2.28,2.28,0,0,1,1.33,4.37c-2.46.75-5,1.54-7.43,2.34A2.16,2.16,0,0,1,1837.64,753.43Zm15-4.56a2.28,2.28,0,0,1-.61-4.48c2.51-.71,5.07-1.4,7.62-2a2.28,2.28,0,1,1,1.13,4.42c-2.51.65-5,1.33-7.52,2A2.64,2.64,0,0,1,1852.64,748.87Zm15.19-3.91a2.28,2.28,0,0,1-.52-4.51c2.53-.59,5.12-1.17,7.69-1.72a2.29,2.29,0,0,1,1,4.47c-2.54.54-5.1,1.11-7.61,1.7A2.37,2.37,0,0,1,1867.83,745Zm15.33-3.28a2.29,2.29,0,0,1-.43-4.53c2.56-.49,5.17-1,7.75-1.42a2.29,2.29,0,0,1,.78,4.51c-2.56.44-5.14.91-7.67,1.4A2.09,2.09,0,0,1,1883.16,741.68Zm15.45-2.68a2.28,2.28,0,0,1-.35-4.54c2.58-.4,5.2-.77,7.8-1.13a2.29,2.29,0,0,1,.61,4.53c-2.57.35-5.16.73-7.71,1.12A2.11,2.11,0,0,1,1898.61,739Zm15.53-2.1a2.28,2.28,0,0,1-.26-4.55c2.59-.3,5.23-.59,7.83-.85a2.29,2.29,0,0,1,.46,4.55c-2.58.25-5.19.54-7.76.84Zm117.43-.17h-.22c-2.62-.26-5.24-.5-7.79-.73a2.28,2.28,0,1,1,.4-4.55c2.56.23,5.2.47,7.84.73a2.29,2.29,0,0,1-.23,4.56Zm-15.63-1.36h-.17c-2.57-.19-5.2-.37-7.8-.53a2.28,2.28,0,1,1,.29-4.56c2.62.16,5.26.34,7.85.54a2.28,2.28,0,0,1-.17,4.56Zm-86.19,0a2.28,2.28,0,0,1-.19-4.56c2.59-.21,5.23-.41,7.86-.58a2.28,2.28,0,0,1,.3,4.56c-2.6.17-5.22.37-7.78.58Zm70.53-1h-.11c-2.6-.13-5.22-.25-7.81-.34a2.29,2.29,0,0,1,.16-4.57c2.61.1,5.26.21,7.87.34a2.29,2.29,0,0,1-.11,4.57Zm-54.89-.08a2.29,2.29,0,0,1-.11-4.57c2.62-.13,5.27-.24,7.87-.33a2.29,2.29,0,0,1,.16,4.57c-2.58.09-5.21.2-7.8.33Zm39.21-.49h0c-2.62-.07-5.24-.11-7.82-.13a2.29,2.29,0,0,1,0-4.57c2.6,0,5.25.07,7.88.13a2.29,2.29,0,0,1-.05,4.57Zm-23.53-.05a2.29,2.29,0,0,1,0-4.57c2.58-.05,5.23-.09,7.88-.1h0a2.29,2.29,0,0,1,0,4.57c-2.63,0-5.25,0-7.81.1Z" transform="translate(-1518.96 -440.84)"/><path class="cls-10" d="M1615.72,1045.29h-.13a2.28,2.28,0,0,1-2.15-2.41c0-.06.09-1.43.33-4a2.29,2.29,0,0,1,4.55.44c-.24,2.46-.32,3.8-.32,3.82A2.29,2.29,0,0,1,1615.72,1045.29Z" transform="translate(-1518.96 -440.84)"/><path class="cls-3" d="M3196.89,1473.34h-1676a2.24,2.24,0,0,1-1.89-2.47h0a2.24,2.24,0,0,1,1.89-2.47h1676a2.25,2.25,0,0,1,1.88,2.47h0A2.25,2.25,0,0,1,3196.89,1473.34Z" transform="translate(-1518.96 -440.84)"/></svg>